<svg id="Layer_1" data-name="Layer 1" xmlns="http://www.w3.org/2000/svg" viewBox="0 0 100 100"><defs><style>.cls-1{fill:#1e293b;}.cls-2{fill:#ffe747;}</style></defs><title>logo-color</title><path class="cls-1" d="M89.62,58.38a21.71,21.71,0,0,0-10-17.71c-2-1.26-4-2.43-6-3.57-.87-.49-1.75-1-2.62-1.5a6.25,6.25,0,0,0-6.37-.17c-1.2.65-2.36,1.42-3.59,2.23l-1.56,1-1.71,1.1,2,1.16c1.31.75,2.34,1.35,3.33,2,1.26.76,2.57,1.51,3.83,2.22,2.48,1.43,5,2.89,7.38,4.54a11.53,11.53,0,0,1,5.11,9.49,11.29,11.29,0,0,1-5.18,9.21c-6.11,4.15-12.43,8.24-18.53,12.21l-4.66,3a2.11,2.11,0,0,1-.57.28c-2.15-1.15-4.27-2.38-6.51-3.68l-.78-.46,1.36-.92,10.91-7.16,11-7.2a6.74,6.74,0,0,0,3.39-5.68,6.77,6.77,0,0,0-3.69-5.5c-5.17-3.05-10.44-6.13-15.53-9.11l-5.69-3.33-.43-.28.83-.55,0,0c2.78-1.83,5.58-3.65,8.37-5.47,3.83-2.51,7.8-5.1,11.69-7.66a8.36,8.36,0,0,0,4-7.1,8.32,8.32,0,0,0-4.33-6.89c-3.33-2-6.88-4.12-10.54-6.18A10.69,10.69,0,0,0,42.86,7L39.38,9.22C32.71,13.53,25.82,18,19.12,22.53a21.68,21.68,0,0,0,.62,36.27,71.36,71.36,0,0,0,8.65,4.94,8.82,8.82,0,0,0,5.78.33,14.15,14.15,0,0,0,3.93-2.19c.53-.37,1.08-.76,1.65-1.11l1.66-1-2.09-1.34c-.58-.37-1-.66-1.51-.93-1.32-.78-2.67-1.56-4-2.31-2.6-1.49-5.28-3-7.82-4.65-3.92-2.51-6.18-6.14-6.22-10s2.19-7.5,6.08-10.09c2.51-1.68,5.09-3.35,7.58-5,4-2.62,8.24-5.33,12.26-8.17,2.54-1.82,4-1.88,6-.26a27,27,0,0,0,4,2.51l.23.13-.72.49C47.9,25.07,40.37,30,33.09,34.77c-2.41,1.6-3.71,3.68-3.64,5.87s1.48,4.2,4,5.65c6.82,4,13.78,8.08,20.52,12l.35.21.53.32c-.31.23-.6.42-.9.62l-7.72,5c-4.11,2.68-8.37,5.44-12.53,8.2A7.92,7.92,0,0,0,34,86.46c3.36,2,6.92,4.12,10.89,6.36a11.21,11.21,0,0,0,5.51,1.55,9.69,9.69,0,0,0,5.27-1.58l3.66-2.31c7.24-4.56,14.74-9.29,21.78-14.4h0A20.71,20.71,0,0,0,89.62,58.38ZM58,88.39,54.38,90.7a7.68,7.68,0,0,1-8.24,0c-4-2.22-7.49-4.29-10.83-6.32a5.75,5.75,0,0,1-3-4.75,5.68,5.68,0,0,1,2.73-4.85c4.15-2.75,8.4-5.51,12.51-8.18q3.87-2.5,7.72-5c.52-.34,1-.68,1.62-1.11l.84-.59,1.52-1.06-1.56-1c-.32-.2-.6-.39-.86-.57-.47-.31-.86-.58-1.3-.82l-.34-.21c-6.74-3.93-13.7-8-20.52-12-1.74-1-2.72-2.29-2.76-3.59s.87-2.63,2.53-3.73c7.28-4.77,14.81-9.7,22.21-14.59.68-.45,1.36-.94,2.38-1.68l1.52-1.11-1.62-.95c-.68-.4-1.33-.76-2-1.11a25.46,25.46,0,0,1-3.67-2.27A6.7,6.7,0,0,0,49,13.43a8.29,8.29,0,0,0-4.75,1.87c-4,2.81-8.15,5.51-12.18,8.12-2.5,1.62-5.08,3.29-7.6,5-4.6,3.06-7.22,7.49-7.18,12.17s2.72,9,7.35,12c2.6,1.65,5.3,3.21,7.92,4.72l4,2.3,0,0a1.71,1.71,0,0,1,.23.13l-.15.11a12.5,12.5,0,0,1-3.23,1.85,6.42,6.42,0,0,1-4-.23,68.45,68.45,0,0,1-8.33-4.77,19.21,19.21,0,0,1-.56-32.13c6.67-4.53,13.56-9,20.21-13.28l3.49-2.25a8.13,8.13,0,0,1,9.11-.21c3.64,2,7.16,4.1,10.47,6.13a5.93,5.93,0,0,1,3.14,4.84,5.94,5.94,0,0,1-2.93,5c-3.88,2.55-7.84,5.14-11.68,7.64L44,37.9c-.46.28-.89.59-1.39.94l-1,.7-1.53,1,1.54,1,.83.58c.44.3.81.56,1.22.8l5.68,3.32c5.09,3,10.36,6.07,15.52,9.11a4.35,4.35,0,0,1,2.48,3.43A4.34,4.34,0,0,1,65,62.38l-11,7.2-10.9,7.16c-.74.48-1.48,1-2.42,1.65l-2.2,1.54,1.69,1,2.45,1.42C45,83.68,47.25,85,49.51,86.18l0,0c1.05.52,2.34-.21,2.84-.54l4.65-3c6.11-4,12.43-8.07,18.57-12.23a13.72,13.72,0,0,0,6.26-11.23,14,14,0,0,0-6.15-11.55c-2.43-1.71-5-3.21-7.59-4.66-1.24-.71-2.53-1.44-3.76-2.19-.6-.37-1.22-.73-1.9-1.13,1.19-.78,2.23-1.46,3.3-2a3.78,3.78,0,0,1,4,.13c.88.52,1.76,1,2.63,1.52,2,1.12,4,2.28,5.94,3.5a19.26,19.26,0,0,1,8.86,15.69,18.27,18.27,0,0,1-7.46,15.62C72.71,79.14,65.25,83.84,58,88.39Z"/><path class="cls-2" d="M79.69,74.07c-7,5.07-14.44,9.77-21.65,14.32L54.38,90.7a7.68,7.68,0,0,1-8.24,0c-4-2.22-7.49-4.29-10.83-6.32a5.75,5.75,0,0,1-3-4.75,5.68,5.68,0,0,1,2.73-4.85c4.15-2.75,8.4-5.51,12.51-8.18q3.87-2.5,7.72-5c.52-.34,1-.68,1.62-1.11l.84-.59,1.52-1.06-1.56-1c-.32-.2-.6-.39-.86-.57-.47-.31-.86-.58-1.3-.82l-.34-.21c-6.74-3.93-13.7-8-20.52-12-1.74-1-2.72-2.29-2.76-3.59s.87-2.63,2.53-3.73c7.28-4.77,14.81-9.7,22.21-14.59.68-.45,1.36-.94,2.38-1.68l1.52-1.11-1.62-.95c-.68-.4-1.33-.76-2-1.11a25.46,25.46,0,0,1-3.67-2.27A6.7,6.7,0,0,0,49,13.43a8.29,8.29,0,0,0-4.75,1.87c-4,2.81-8.15,5.51-12.18,8.12-2.5,1.62-5.08,3.29-7.6,5-4.6,3.06-7.22,7.49-7.18,12.17s2.72,9,7.35,12c2.6,1.65,5.3,3.21,7.92,4.72l4,2.3,0,0a1.71,1.71,0,0,1,.23.13l-.15.11a12.5,12.5,0,0,1-3.23,1.85,6.42,6.42,0,0,1-4-.23,68.45,68.45,0,0,1-8.33-4.77,19.21,19.21,0,0,1-.56-32.13c6.67-4.53,13.56-9,20.21-13.28l3.49-2.25a8.13,8.13,0,0,1,9.11-.21c3.64,2,7.16,4.1,10.47,6.13a5.93,5.93,0,0,1,3.14,4.84,5.94,5.94,0,0,1-2.93,5c-3.88,2.55-7.84,5.14-11.68,7.64L44,37.9c-.46.28-.89.59-1.39.94l-1,.7-1.53,1,1.54,1,.83.58c.44.3.81.56,1.22.8l5.68,3.32c5.09,3,10.36,6.07,15.52,9.11a4.35,4.35,0,0,1,2.48,3.43A4.34,4.34,0,0,1,65,62.38l-11,7.2-10.9,7.16c-.74.48-1.48,1-2.42,1.65l-2.2,1.54,1.69,1,2.45,1.42C45,83.68,47.25,85,49.51,86.18l0,0c1.05.52,2.34-.21,2.84-.54l4.65-3c6.11-4,12.43-8.07,18.57-12.23a13.72,13.72,0,0,0,6.26-11.23,14,14,0,0,0-6.15-11.55c-2.43-1.71-5-3.21-7.59-4.66-1.24-.71-2.53-1.44-3.76-2.19-.6-.37-1.22-.73-1.9-1.13,1.19-.78,2.23-1.46,3.3-2a3.78,3.78,0,0,1,4,.13c.88.52,1.76,1,2.63,1.52,2,1.12,4,2.28,5.94,3.5a19.26,19.26,0,0,1,8.86,15.69A18.27,18.27,0,0,1,79.69,74.07Z"/></svg>