<svg xmlns="http://www.w3.org/2000/svg" viewBox="0 0 100 100"><title>Shounak logo</title><path d="M82.24,75.64c-8.44,6.13-17.36,11.61-26.19,17.2-3.11,2-6.57,1.83-9.82,0-3.75-2.12-7.5-4.3-11.19-6.55-4.82-2.89-5-9-.32-12.06,6.93-4.59,13.92-9.08,20.88-13.64.74-.48,1.45-1,2.51-1.73-.9-.58-1.51-1-2.19-1.42q-10.77-6.3-21.53-12.61c-4.52-2.63-4.65-6.83-.28-9.72q11.45-7.5,22.91-15c.67-.45,1.34-.93,2.4-1.7a51.77,51.77,0,0,1-6-3.59c-2.76-2.21-5-1.77-7.76.22C39,19.71,32.05,24,25.25,28.53c-9.18,6.1-9.11,16.88.16,22.82,4,2.53,8.15,4.81,12.22,7.22.58.32,1.16.7,2,1.22-2,1.22-3.56,2.69-5.45,3.27a7.86,7.86,0,0,1-5.07-.29,72.23,72.23,0,0,1-8.76-5,21.11,21.11,0,0,1-.61-35.3C27.78,17,36,11.72,44.18,6.43A9.72,9.72,0,0,1,54.9,6.17q5.49,3.08,10.84,6.35c5,3.05,5.17,9,.26,12.29-6.87,4.53-13.8,9-20.7,13.54-.73.45-1.44,1-2.43,1.67.86.58,1.44,1,2.05,1.38,7.28,4.27,14.6,8.54,21.88,12.84,4.14,2.43,4.27,6.7.26,9.37L44.5,78.43c-.9.58-1.8,1.22-3.08,2.12,3.4,2,6.42,3.75,9.53,5.42.39.19,1.19-.16,1.67-.48,8-5.2,16-10.37,23.94-15.72s7.89-15.85.09-21.41c-3.69-2.59-7.76-4.68-11.64-7-1.1-.68-2.22-1.32-3.73-2.18,2-1.29,3.56-2.41,5.23-3.31a5.23,5.23,0,0,1,5.33.16c3,1.73,6,3.37,8.89,5.2C93,48.94,93.92,67.14,82.24,75.64Z" fill="#fff"/></svg>